<?xml version="1.0" encoding="utf-8"?>
<svg viewBox="1.9997 2.9997 8.0005 9.0005" width="8.0005" height="9.0005"
  xmlns="http://www.w3.org/2000/svg">
  <path fill="#fff" fill-rule="evenodd" clip-rule="evenodd"
    d="M 2.146 11.146 C 1.951 11.342 1.951 11.658 2.146 11.854 C 2.342 12.049 2.658 12.049 2.854 11.854 L 6.854 7.854 C 7.049 7.658 7.049 7.342 6.854 7.146 L 2.854 3.146 C 2.658 2.951 2.342 2.951 2.146 3.146 C 1.951 3.342 1.951 3.658 2.146 3.854 L 5.793 7.5 L 2.146 11.146 Z M 5.146 11.146 C 4.951 11.342 4.951 11.658 5.146 11.854 C 5.342 12.049 5.658 12.049 5.854 11.854 L 9.854 7.854 C 10.049 7.658 10.049 7.342 9.854 7.146 L 5.854 3.146 C 5.658 2.951 5.342 2.951 5.146 3.146 C 4.951 3.342 4.951 3.658 5.146 3.854 L 8.793 7.5 L 5.146 11.146 Z"
    transform="matrix(1, 0, 0, 1, 2.220446049250313e-16, 0)" />
</svg>