<?xml version="1.0" encoding="utf-8"?><!-- Uploaded to: SVG Repo, www.svgrepo.com, Generator: SVG Repo Mixer Tools -->
<svg width="800px" height="800px" viewBox="0 0 64 64" fill="none" xmlns="http://www.w3.org/2000/svg">
<path fill="#fff" d="M57.52 21.1111C57.5232 22.1978 57.311 23.2743 56.8956 24.2784C56.4803 25.2825 55.87 26.1943 55.1 26.9611L28.56 53.5111C28.2893 53.7779 27.9501 53.9648 27.58 54.0511L11.08 57.7411C10.7514 57.8123 10.4162 57.8492 10.08 57.8511C9.40545 57.8493 8.73969 57.6981 8.13047 57.4085C7.52125 57.1189 6.98368 56.698 6.55638 56.1761C6.12907 55.6542 5.8226 55.0441 5.65898 54.3897C5.49535 53.7353 5.47863 53.0528 5.61 52.3911L8.79002 36.5111C8.86868 36.1243 9.06003 35.7694 9.34001 35.4911L36.48 8.35113C38.0337 6.79994 40.1395 5.92871 42.335 5.92871C44.5305 5.92871 46.6363 6.79994 48.19 8.35113L55.1 15.2511C55.8694 16.0204 56.4792 16.9341 56.8945 17.9398C57.3098 18.9454 57.5223 20.0231 57.52 21.1111Z" />
</svg>