<?xml version="1.0" encoding="iso-8859-1"?>
<!-- Uploaded to: SVG Repo, www.svgrepo.com, Generator: SVG Repo Mixer Tools -->
<svg fill="#000000" height="800px" width="800px" version="1.1" id="Layer_1" xmlns="http://www.w3.org/2000/svg" xmlns:xlink="http://www.w3.org/1999/xlink" 
	 viewBox="0 0 500.462 500.462" xml:space="preserve">
<g>
	<g>
		<path d="M375.913,42.712h-74.75v9.846c0,13.606-5.288,26.404-14.913,36.019c-9.625,9.625-22.413,14.923-36.019,14.923
			c-13.615,0-26.413-5.298-36.029-14.933c-9.606-9.615-14.894-22.404-14.875-36l0.01-9.856h-74.798L0,167.26l77.058,77.058
			l41.702-41.692V457.75h262.933V202.625l41.702,41.692l77.067-77.058L375.913,42.712z M362,155.087v282.971H138.452V155.087
			l-61.394,61.385L27.846,167.26L132.692,62.404h47.606c2.087,15.125,8.99,29.096,19.971,40.087
			c13.337,13.346,31.077,20.702,49.962,20.702c18.865,0,36.606-7.346,49.942-20.683c10.99-11,17.913-24.971,20.01-40.106h47.577
			L472.615,167.26l-49.221,49.212L362,155.087z"/>
	</g>
</g>
</svg>